<svg xmlns="http://www.w3.org/2000/svg" viewBox="0 0 720.25 12.36"><defs><style>.cls-1{fill:none;}.cls-2{fill:#45b045;}.cls-3{fill:#006638;}.cls-4{fill:#042a2b;}.cls-5{fill:#daffc2;}</style></defs><title>Artboard 10 copy 2</title><g id="Layer_17" data-name="Layer 17"><path class="cls-1" d="M4.8,0C10.29,2.8,15,6.9,20,10.4a29.23,29.23,0,0,1,2.48,2h7C30.38,8.2,31.33,4.07,32.49,0Z"/><path class="cls-1" d="M315.82.68a13.39,13.39,0,0,0,1.95.62,11.46,11.46,0,0,1,1.76-.5A7.69,7.69,0,0,0,315.82.68Z"/><path class="cls-1" d="M216.06,4.58c5.07-.81,11.43-.44,14.52-4.58H215c-.15.58-.29,1.17-.44,1.76C214.17,3.35,214.44,4.84,216.06,4.58Z"/><path class="cls-1" d="M129.71,0H118.36a75.61,75.61,0,0,1-19,12.36h33C134.05,7.17,132.33,3.4,129.71,0Z"/><path class="cls-1" d="M209.94,11a59.44,59.44,0,0,1,3.48-11H166.93c.67,1.29,1.38,2.57,2.17,3.81-2.31,2.41-.91,4.78,0,7.21a13.29,13.29,0,0,0,.59,1.34h9.77L179,12a50,50,0,0,1-10-8c5,.21,6.88,5.42,11,7,1.6,1,3.37,1.08,4.33-.53,1.19-2-2.2-2.56-1.92-5,3,1.63,4.63,4.58,6.81,6.87h16.24c1.49-.45,3-.92,4.46-1.4Z"/><path class="cls-1" d="M534.77,10.11h0c-5.7-2.53-11.14-5.76-17.7-5.8C516,4.31,515,2.8,514,2c4.67.05,9,1.73,13.35,3.12,3.06,1,6.48.41,9.27,2.47,1.13.84,2.32,0,2.34-1.45,0-1.73.78-3.66-.93-5.1V1a4.36,4.36,0,0,1,.3-1H493c.24,1,.49,2,.74,3.14-1.87.47-1.51-1.81-2.66-2.15,0-.33-.06-.66-.08-1H481c0,2.5-1.14,4.71-1.9,7A1.42,1.42,0,0,1,479,9l-3.93,3.09a1.68,1.68,0,0,0-.15.3h1.53a3.47,3.47,0,0,1,2.15-1.85,8.76,8.76,0,0,1,0,1.36,1.73,1.73,0,0,1-.15.49H495.1a13.19,13.19,0,0,0-.53-2.83c-.88-2.94,1.65-5.84-.79-8.7,2.38.19,4,.4,3.46,3.06-.33,1.71-.79,3.62.74,5.14a17.6,17.6,0,0,1,0,3.33h41.82a6,6,0,0,1-2-1.15C536.79,10.9,535.49,11.29,534.77,10.11ZM492.09,4.05c-.21.52-1.37.66-2.09,1a1.94,1.94,0,0,0-2,1c-.94-2.53-.61-4.08,2.6-3.2C491.24,3,492.59,2.8,492.09,4.05Z"/><path class="cls-1" d="M429.82,0H401a36.67,36.67,0,0,1,1.85,6.56,14.37,14.37,0,0,0,2.17,5.8h24.14A71.22,71.22,0,0,1,429.82,0Z"/><path class="cls-1" d="M434.25,0h-4.31c0,3.63,0,7.25,0,10.88a4.56,4.56,0,0,0,.19,1.48h2.64c.12-.41.2-.88.35-1.27C434.4,7.63,433.61,4,434.25,0Z"/><path class="cls-1" d="M474,11h0c1.11-1.79,2.46-3.37,1.73-5.87-.38-1.31-.57-3.42,2-3.53,1-.05,1.22-.86,1.19-1.61H445.78a11.46,11.46,0,0,0-.13,1.57,43.26,43.26,0,0,0-2.51,10.79h29.63A8.5,8.5,0,0,0,474,11Z"/><path class="cls-1" d="M0,12.36H19A86.09,86.09,0,0,0,0,0Z"/><path class="cls-1" d="M217.2,11.54a2.09,2.09,0,0,1-.17.4l.1,0c4.79-1.82,9-4.9,13.94-6.44-6.1.53-12.22,1-17.42,4.65A2.89,2.89,0,0,1,217.2,11.54Z"/><path class="cls-1" d="M114.38,0H64.53C63.39.44,62,.36,60.9.88A12.82,12.82,0,0,1,54.58.41C54,.24,53.38.11,52.88,0h-3.1c-1.05.55-1.3,2.07-1.35,5.11A21.76,21.76,0,0,1,47,12.36H91.46A94.42,94.42,0,0,0,112.23,1.71,22.4,22.4,0,0,0,114.38,0Z"/><path class="cls-1" d="M268.05,6.3c1.75-1.28,2.8.92,3.93,2a3.22,3.22,0,0,0,.88.67c1.7-.78,2.15-3,3.88-3.79A5.27,5.27,0,0,1,275.18.26c0-.09.07-.17.11-.26H259.67a24,24,0,0,0-2.13,4.08,1.59,1.59,0,0,1-.15.21c2.85,2.27,5.08,5.15,7.6,7.75.07.1.14.21.23.32h4.84a4,4,0,0,0-1.23-1.78C267.64,9.48,266.32,7.57,268.05,6.3Z"/><path class="cls-1" d="M312.61,5.16A18.23,18.23,0,0,1,308.94,4l-.56-.2c-1.06,1.22-2.24,1.75-4-1.14h0c0,3.18,2.54,4.29,2.25,6.71-1.1.42-3.68-4.07-3.66.75.25.74.46,1.5.65,2.25h18.78a73.76,73.76,0,0,0-8.76-7.09C313.28,5.24,312.94,5.21,312.61,5.16Z"/><path class="cls-1" d="M255.07,6.12h0l-3.84,6.24h10.09C259.12,10.41,257.45,7.88,255.07,6.12Z"/><path class="cls-1" d="M42.4,0H36.59a119.44,119.44,0,0,0-3.47,12.36h8.8c.35-1.07.78-2.12,1-3.2C44.25,4.11,44.35,1.52,42.4,0Z"/><path class="cls-1" d="M246.69.12,246.6,0h-5.8a18.78,18.78,0,0,1-.89,1.8C242.17,1.26,244.29.08,246.69.12Z"/><path class="cls-1" d="M400.71,10.67c-1.23-3.54-2.34-7.1-3.45-10.67H376.08L378,2c1.43,2.57,1,5.33.4,8.28C378.63,6,376.38,3,374.19,0h-7.46A64.26,64.26,0,0,1,356,7.2c-.05-.42-.09-.84-.14-1.27l8-5.93H334.61a36.55,36.55,0,0,0-6.74,2.17A147.21,147.21,0,0,1,342.73,5a3.68,3.68,0,0,1,2.49,2c3.3.57,5,2.9,6.52,5.37h48.71A1.44,1.44,0,0,0,400.71,10.67Z"/><path class="cls-1" d="M344.5,8.48a4.48,4.48,0,0,1-.72.4c-5.07,1.31-9.67-1.64-14.6-1.6C327.05,7,325,6.37,322.86,6a16.71,16.71,0,0,0-5.57-.61c2.5,2.86,4.79,5.45,7.87,7h24.31A13.18,13.18,0,0,0,344.5,8.48Z"/><path class="cls-1" d="M292.08,1.63a6,6,0,0,0-1.63-1c-.3-.2-.6-.4-.88-.61h-3.05a22.61,22.61,0,0,0-1.88,3.43c-1.58,2.91-2.7,6.07-4.38,8.93H297c-.32-.46-.65-.92-1-1.37A21.31,21.31,0,0,0,292.08,1.63Z"/><path class="cls-1" d="M650.3,11c-1.95-3.22-2.46-7-3.84-10.41a5.89,5.89,0,0,1-.24-.58h-.43c-2.87.63-4.54,3.87-7.63,4h0c-1.61,4.16-6,4.07-9.14,6l-2.77,1.23h0a15.14,15.14,0,0,0-1.63,1.13H650a6,6,0,0,1,.57-.91C650.49,11.29,650.39,11.14,650.3,11Z"/><path class="cls-1" d="M632.92,5.05,633,5l1-.94,2.86-.19h0l3.58-2.8c-1.13-.1-2.29-.4-3.46-.61A6.78,6.78,0,0,1,635.63,0H630.5C630.5,2,632.05,3.4,632.92,5.05Z"/><path class="cls-1" d="M436.85,5.8h0l.27-2.61h0A29.14,29.14,0,0,0,437.67,0h-3.26C435.46,2.09,434.26,4.85,436.85,5.8Z"/><path class="cls-1" d="M160.62,0H132.39c2.66,3.17,4.4,6.58,2,11.45a4.25,4.25,0,0,0-.31.91H165.2a33.61,33.61,0,0,0-2.28-7C162.16,3.53,161.19,1.86,160.62,0Z"/><path class="cls-1" d="M695,0h-8.34c2,2.08,4.1,4.19,4.75,7.4-3.27-4-7.64-5.64-12.44-6.4l1.39-1H665.07a15.88,15.88,0,0,1-4,2.06c-1,1.55-3,2.8-1.68,5.21-.83-.6-2.08-1.89-2.42-1.68-1.72,1-.46,3-.95,4.45,0,.44,0,.88,0,1.32l.46.92.06.08h37.45A32.66,32.66,0,0,0,695,0Z"/><path class="cls-1" d="M698.51,0a39.58,39.58,0,0,1-1.13,12.36h22.87V0Z"/><path class="cls-1" d="M630,7.09a6,6,0,0,1-.89-1.16c-1.81-3.09-3.66-5.87-8-4.9-.54.12-1-.37-1.23-1H618.1a83.33,83.33,0,0,1-5.62,7,17.37,17.37,0,0,0-3.39,5.32H622c1.25-1.18,2.6-2.28,4-3.38C627.28,8.31,628.66,7.77,630,7.09Z"/><path class="cls-1" d="M234.9,9.41l-.07.05c-1.27,1-2.3,2.44-3.94,2.9h6.58A4.4,4.4,0,0,0,234.9,9.41Z"/><path class="cls-1" d="M541.68,4.42C541.2,6,540.59,7.44,540,9c4.7,1.92,8.81-.15,13-1.95,1.46-1.6,3.51.09,5.08-.92L579,2.1A17.93,17.93,0,0,0,585.74,0H539.21l0,.05C540.27,1.31,542.38,2.2,541.68,4.42Z"/><path class="cls-1" d="M614.13,0h-3A34.07,34.07,0,0,1,608,1.47a4.9,4.9,0,0,1-.86,2.33c.85,3-2.09,5.24-1.65,8.56h.25c2.81-4.07,4.85-8.35,8-11.79A1.44,1.44,0,0,0,614.13,0Z"/><path class="cls-1" d="M591,10.56l-.16,0c-.5.63-1,1.25-1.56,1.84h7.28a33.9,33.9,0,0,0,2.18-6.56C596,7.12,594.09,9.86,591,10.56Z"/><path class="cls-1" d="M601.91,6.87h0c-.61,1.82-1.11,3.69-1.76,5.49H601a22.79,22.79,0,0,1,2.6-7.64A6,6,0,0,0,601.91,6.87Z"/><path class="cls-1" d="M589.15,8.08h0c3.5-2.07,7.14-3.94,10.44-6.28-.49-.14-.73-.65-.5-1.8h-9.32c-2,3.7-5.52,4.8-10.37,3.27,0,.09,0,.18,0,.28-2.77,3.38-6.89,4.11-10.68,4.17-6.73.11-12.93,2-19.21,3.94a20.86,20.86,0,0,0-4.65.7H579.9a20.38,20.38,0,0,1,9.25-4.28Z"/><path class="cls-2" d="M4.8,0H0A86.09,86.09,0,0,1,19,12.36h3.57a29.23,29.23,0,0,0-2.48-2C15,6.9,10.29,2.8,4.8,0Z"/><path class="cls-3" d="M698.51,0H695a32.66,32.66,0,0,1-1.09,12.36h3.44A39.58,39.58,0,0,0,698.51,0Z"/><path class="cls-4" d="M32.49,0c-1.16,4.07-2.11,8.2-2.93,12.36h3.56A119.44,119.44,0,0,1,36.59,0Z"/><path class="cls-5" d="M60.9.88C62,.36,63.39.44,64.53,0H52.88c.5.11,1.07.24,1.7.41A12.82,12.82,0,0,0,60.9.88Z"/><path class="cls-5" d="M49.78,0H42.4c2,1.52,1.85,4.11.57,9.16-.27,1.08-.7,2.13-1,3.2H47a21.76,21.76,0,0,0,1.45-7.25C48.48,2.07,48.73.55,49.78,0Z"/><path class="cls-5" d="M640.45,1.06,641.82,0h-6.19A6.78,6.78,0,0,0,637,.45C638.16.66,639.32,1,640.45,1.06Z"/><path class="cls-5" d="M621.07,1c4.34-1,6.19,1.81,8,4.9A6,6,0,0,0,630,7.09a12.12,12.12,0,0,0,3-2c-.87-1.65-2.42-3-2.42-5H619.84C620,.66,620.53,1.15,621.07,1Z"/><path class="cls-4" d="M651.23,1a1.32,1.32,0,0,1-.11-1h-4.9a5.89,5.89,0,0,0,.24.58C647.84,4,648.35,7.77,650.3,11c.09.15.19.3.28.46.15-.2.31-.39.49-.59l1.63,1.5h2.14C651.7,9.34,652.91,4.62,651.23,1Z"/><path class="cls-4" d="M656,11.36c0,.33,0,.67,0,1h.53l-.06-.08Z"/><path class="cls-3" d="M650.58,11.45a6,6,0,0,0-.57.91h2.69l-1.63-1.5C650.89,11.06,650.73,11.25,650.58,11.45Z"/><path class="cls-5" d="M691.44,7.4c-.65-3.21-2.7-5.32-4.75-7.4h-6.3L679,1C683.8,1.76,688.17,3.38,691.44,7.4Z"/><path class="cls-2" d="M661,2.06a15.88,15.88,0,0,0,4-2.06H660.9A8.37,8.37,0,0,1,661,2.06Z"/><path class="cls-3" d="M636.87,3.86h0L634,4.05,633,5l-.07.06a12.12,12.12,0,0,1-3,2c-1.3.68-2.68,1.22-4,1.89-.26.79-1.06,1.64.25,2.25h0L629,10c3.1-1.91,7.53-1.82,9.14-6l-1.27-.15Z"/><path class="cls-3" d="M656,10a6.58,6.58,0,0,1-.28-.93c-.93-3-2.06-5.92-1.52-9.11h-3.06a1.32,1.32,0,0,0,.11,1c1.68,3.62.47,8.34,3.61,11.36H656c0-.33,0-.67,0-1S656,10.48,656,10Z"/><path class="cls-2" d="M636.87,3.86h0l1.27.15h0c3.09-.15,4.76-3.39,7.63-4h-4l-1.37,1.06Z"/><path class="cls-2" d="M626.23,11.23c-1.31-.61-.51-1.46-.25-2.25-1.35,1.1-2.7,2.2-4,3.38h2.57a15.14,15.14,0,0,1,1.63-1.13Z"/><path class="cls-5" d="M655.7,9.11A6.58,6.58,0,0,0,656,10c.49-1.49-.77-3.43.95-4.45.34-.21,1.59,1.08,2.42,1.68-1.3-2.41.67-3.66,1.68-5.21A8.37,8.37,0,0,0,660.9,0h-6.72C653.64,3.19,654.77,6.14,655.7,9.11Z"/><path class="cls-4" d="M286.52,0h-4.68c-1,1.64-2,3.25-2.93,4.88h0a76.94,76.94,0,0,1-3.28,7.48h1.69c.23-.48.48-1,.75-1.43-.11.5-.19,1-.25,1.43h2.44c1.68-2.86,2.8-6,4.38-8.93A22.61,22.61,0,0,1,286.52,0Z"/><path class="cls-2" d="M169.1,3.81c-.79-1.24-1.5-2.52-2.17-3.81h-6.31c.57,1.86,1.54,3.53,2.3,5.37a33.61,33.61,0,0,1,2.28,7h4.5a13.29,13.29,0,0,1-.59-1.34C168.19,8.59,166.79,6.22,169.1,3.81Z"/><path class="cls-5" d="M209.94,11l2.23-.14a6.58,6.58,0,0,1,1.48-.7C218.85,6.48,225,6,231.07,5.47c.62-.19,1.23-.36,1.87-.5L234,4.1h0A16.31,16.31,0,0,1,235.45,0h-4.87c-3.09,4.14-9.45,3.77-14.52,4.58-1.62.26-1.89-1.23-1.51-2.82.15-.59.29-1.18.44-1.76h-1.57a59.44,59.44,0,0,0-3.48,11Z"/><path class="cls-3" d="M114.38,0a22.4,22.4,0,0,1-2.15,1.71A94.42,94.42,0,0,1,91.46,12.36h7.86A75.61,75.61,0,0,0,118.36,0Z"/><path class="cls-2" d="M401,0h-3.74c1.11,3.57,2.22,7.13,3.45,10.67a1.44,1.44,0,0,1-.26,1.69H405a14.37,14.37,0,0,1-2.17-5.8A36.67,36.67,0,0,0,401,0Z"/><path class="cls-4" d="M445.78,0h-5.95a14.33,14.33,0,0,1-2.7,3.18h0l-.27,2.61h0a18.78,18.78,0,0,1-.59,6.56h6.88a43.26,43.26,0,0,1,2.51-10.79A11.46,11.46,0,0,1,445.78,0Z"/><path class="cls-3" d="M437.13,3.18A14.33,14.33,0,0,0,439.83,0h-2.16a29.14,29.14,0,0,1-.55,3.19Z"/><path class="cls-2" d="M599.59,1.8l.39-.26A9,9,0,0,1,603.37,0h-4.28C598.86,1.15,599.1,1.66,599.59,1.8Z"/><path class="cls-2" d="M607.13,3.8A2.12,2.12,0,0,0,607,4c-.68.06-1.34-1.23-2,0a4.39,4.39,0,0,0-1.43.73,22.79,22.79,0,0,0-2.6,7.64h4.52C605,9,608,6.79,607.13,3.8Z"/><path class="cls-2" d="M618.1,0h-4a1.44,1.44,0,0,1-.35.57c-3.2,3.44-5.24,7.72-8,11.79h3.36A17.37,17.37,0,0,1,612.48,7,83.33,83.33,0,0,0,618.1,0Z"/><path class="cls-4" d="M607.93.84a2.79,2.79,0,0,1,.06.63A34.07,34.07,0,0,0,611.17,0H606A1.83,1.83,0,0,0,607.93.84Z"/><path class="cls-5" d="M498,9c-1.53-1.52-1.07-3.43-.74-5.14.51-2.66-1.08-2.87-3.46-3.06,2.44,2.86-.09,5.76.79,8.7a13.19,13.19,0,0,1,.53,2.83H498A17.6,17.6,0,0,0,498,9Z"/><path class="cls-2" d="M568.69,7.72c3.79-.06,7.91-.79,10.68-4.17,0-.1,0-.19,0-.28L579,3.16V2.1l-20.94,4c-1.57,1-3.62-.68-5.08.92-4.15,1.8-8.26,3.87-13,1.95-1.81.13-3.83-.69-5.27,1.16h0c.72,1.18,2,.79,3.06,1.1a6,6,0,0,0,2,1.15h5a20.86,20.86,0,0,1,4.65-.7C555.76,9.76,562,7.83,568.69,7.72Z"/><path class="cls-5" d="M474,11a8.5,8.5,0,0,1-1.24,1.35h2.13a1.68,1.68,0,0,1,.15-.3Z"/><path class="cls-5" d="M477.75,1.61c-2.58.11-2.39,2.22-2,3.53.73,2.5-.62,4.08-1.73,5.87h0l1,1.05L479,9a1.42,1.42,0,0,0,.14-2c.76-2.31,1.86-4.52,1.9-7h-2.08C479,.75,478.76,1.56,477.75,1.61Z"/><path class="cls-5" d="M538,1c1.71,1.44,1,3.37.93,5.1,0,1.49-1.21,2.29-2.34,1.45-2.79-2.06-6.21-1.49-9.27-2.47C523,3.72,518.62,2,514,2c1,.81,2.07,2.32,3.12,2.32,6.56,0,12,3.27,17.7,5.8h0c1.44-1.85,3.46-1,5.27-1.16.55-1.51,1.16-3,1.64-4.53.7-2.22-1.41-3.11-2.42-4.37l0,0h-.94a4.36,4.36,0,0,0-.3,1Z"/><path class="cls-5" d="M478.58,10.51a3.47,3.47,0,0,0-2.15,1.85h2a1.73,1.73,0,0,0,.15-.49A8.76,8.76,0,0,0,478.58,10.51Z"/><path class="cls-5" d="M493.72,3.14C493.47,2,493.22,1,493,0h-2c0,.33,0,.66.08,1C492.21,1.33,491.85,3.61,493.72,3.14Z"/><path class="cls-3" d="M579,3.16l.38.11c4.85,1.53,8.32.43,10.37-3.27h-4A17.93,17.93,0,0,1,579,2.1Z"/><path class="cls-5" d="M490.61,2.85c-3.21-.88-3.54.67-2.6,3.2a1.94,1.94,0,0,1,2-1c.72-.32,1.88-.46,2.09-1C492.59,2.8,491.24,3,490.61,2.85Z"/><path class="cls-4" d="M298.77,1.19l3.46.05c2.4,0,4.81.06,6.79,1.76-.22.28-.43.55-.64.79l.56.2a18.23,18.23,0,0,0,3.67,1.17c.33,0,.67.08,1,.11-.59-.39-1.17-.79-1.79-1.15,3.8-.23,7.59-.33,11.29.81l-5.89.34.06.07a16.71,16.71,0,0,1,5.57.61c2.11.42,4.19,1,6.32,1.33,4.93,0,9.53,2.91,14.6,1.6a4.48,4.48,0,0,0,.72-.4c-.25-.11-.49-.23-.75-.33L345,7l.23,0a3.68,3.68,0,0,0-2.49-2,147.21,147.21,0,0,0-14.86-2.78l-1.65.66c-3.12-.31-6.36.94-9.37-.72a1.84,1.84,0,0,1,.92-.81,13.39,13.39,0,0,1-1.95-.62c-.64.13-1.27.3-1.89.49A1.26,1.26,0,0,1,312.88,0H297c.61.38,1.2.78,1.8,1.19Z"/><path class="cls-4" d="M304.36,2.65h0Z"/><path class="cls-2" d="M277.32,12.36h.5c.06-.46.14-.93.25-1.43C277.8,11.4,277.55,11.88,277.32,12.36Z"/><path class="cls-5" d="M276.74,5.19a2.12,2.12,0,0,1,.31-.14l1.86-.17h0c1-1.63,2-3.24,2.93-4.88h-2.78c-.27.67-.64,1.27-1.6,1.12-.17,0-.26-.55-.34-1.12h-1.83c0,.09-.08.17-.11.26A5.27,5.27,0,0,0,276.74,5.19Z"/><path class="cls-2" d="M278.91,4.88l-1.86.17a2.12,2.12,0,0,0-.31.14c-1.73.8-2.18,3-3.88,3.79a3.22,3.22,0,0,1-.88-.67c-1.13-1.09-2.18-3.29-3.93-2s-.41,3.18.78,4.28a4,4,0,0,1,1.23,1.78h5.57a76.94,76.94,0,0,0,3.28-7.48Z"/><path class="cls-5" d="M292.08,1.63c-.39-.54-.8-1.08-1.24-1.6l0,0h-1.3c.28.21.58.41.88.61A6,6,0,0,1,292.08,1.63Z"/><path class="cls-5" d="M299.45,11.34a22.74,22.74,0,0,0-.68-10.15h0C298.17.78,297.58.38,297,0h-3.86c.18.32.33.67.48.94A117.62,117.62,0,0,0,299.45,11.34Z"/><path class="cls-5" d="M182.43,5.49c-.28,2.4,3.11,2.95,1.92,5-1,1.61-2.73,1.58-4.33.53l-1,1,.46.37h9.77C187.06,10.07,185.39,7.12,182.43,5.49Z"/><path class="cls-2" d="M217.2,11.54a2.89,2.89,0,0,0-3.55-1.42,6.58,6.58,0,0,0-1.48.7l-2.23.14c-1.48.48-3,.95-4.46,1.4h10.25l1.3-.42A2.09,2.09,0,0,0,217.2,11.54Z"/><path class="cls-5" d="M169,4a50,50,0,0,0,10,8l1-1C175.86,9.4,174,4.19,169,4Z"/><path class="cls-2" d="M247,.11l.84-.11H246.6l.09.12Z"/><path class="cls-4" d="M234.9,9.41a9.94,9.94,0,0,0-1.08-.49c3.81-3.3,7.94-5.32,13.3-4.56,1.1.16,2.56-2.16,3.85-3.33h0l-1-1h-2.13L247,.11h-.29c-2.4,0-4.52,1.14-6.78,1.68-.22.38-.43.76-.68,1.13-1.56,1.17-3.42.95-5.19,1.17h0l-1.1.87c-.64.14-1.25.31-1.87.5-4.91,1.54-9.15,4.62-13.94,6.44l-.1,0-1.3.42H225.8a6.11,6.11,0,0,0,1.69-1.47c1.55-1.93,2,.16,2.61,1.15-.12.1-.23.21-.34.32h1.13c1.64-.46,2.67-1.86,3.94-2.9Z"/><path class="cls-2" d="M234,4.1c1.77-.22,3.63,0,5.19-1.17.25-.37.46-.75.68-1.13A18.78,18.78,0,0,0,240.8,0h-5.35A16.31,16.31,0,0,0,234,4.1Z"/><path class="cls-3" d="M132.39,0h-2.68c2.62,3.4,4.34,7.17,2.58,12.36h1.79a4.25,4.25,0,0,1,.31-.91C136.79,6.58,135.05,3.17,132.39,0Z"/><path class="cls-2" d="M436.85,5.8h0c-2.59-1-1.39-3.71-2.44-5.8h-.16c-.64,4,.15,7.63-1.12,11.09-.15.39-.23.86-.35,1.27h3.48A18.78,18.78,0,0,0,436.85,5.8Z"/><path class="cls-2" d="M429.94,0h-.12a71.22,71.22,0,0,0-.66,12.36h1a4.56,4.56,0,0,1-.19-1.48C429.93,7.25,429.94,3.63,429.94,0Z"/><path class="cls-3" d="M599.59,1.8c-3.3,2.34-6.94,4.21-10.44,6.28h0c.4.93.83,1.82,1.93,2.09l-.27.35.16,0c3.12-.7,5-3.44,7.74-4.76.07-.3.15-.6.22-.91,1.42-1.66,2.56-3.73,5.42-3.95-.19,2.52-5.31,2.62-2.44,5.93h0a6,6,0,0,1,1.65-2.15A4.39,4.39,0,0,1,605,4c.69-1.21,1.35.08,2,0a2.12,2.12,0,0,1,.11-.21A4.9,4.9,0,0,0,608,1.47a2.79,2.79,0,0,0-.06-.63A1.83,1.83,0,0,1,606,0h-2.63A9,9,0,0,0,600,1.54Z"/><path class="cls-2" d="M601.91,6.87C599,3.56,604.16,3.46,604.35.94c-2.86.22-4,2.29-5.42,4-.07.31-.15.61-.22.91a33.9,33.9,0,0,1-2.18,6.56h3.62c.65-1.8,1.15-3.67,1.76-5.49Z"/><path class="cls-3" d="M301.91,6.14c.11-1.63.21-3.27.32-4.9l-3.46-.05a22.74,22.74,0,0,1,.68,10.15A117.62,117.62,0,0,1,293.59.94c-.15-.27-.3-.62-.48-.94h-2.24l0,0c.44.52.85,1.06,1.24,1.6A21.31,21.31,0,0,1,296,11c.33.45.66.91,1,1.37h4.29C300.93,10.28,300.73,8.2,301.91,6.14Z"/><path class="cls-2" d="M313.93,1.17c.62-.19,1.25-.36,1.89-.49a7.69,7.69,0,0,1,3.71.12,11.46,11.46,0,0,0-1.76.5,1.84,1.84,0,0,0-.92.81c3,1.66,6.25.41,9.37.72l1.65-.66A36.55,36.55,0,0,1,334.61,0H312.88A1.26,1.26,0,0,0,313.93,1.17Z"/><path class="cls-2" d="M317.29,5.34l-.06-.07,5.89-.34c-3.7-1.14-7.49-1-11.29-.81.62.36,1.2.76,1.79,1.15a73.76,73.76,0,0,1,8.76,7.09h2.78C322.08,10.79,319.79,8.2,317.29,5.34Z"/><path class="cls-3" d="M345.22,7,345,7l-1.24,1.2c.26.1.5.22.75.33a13.18,13.18,0,0,1,5,3.88h2.27C350.22,9.89,348.52,7.56,345.22,7Z"/><path class="cls-5" d="M302.23,1.24c-.11,1.63-.21,3.27-.32,4.9.35,1.33.69,2.65,1,4h0c0-4.82,2.56-.33,3.66-.75.29-2.42-2.28-3.53-2.25-6.71h0c1.77,2.89,2.95,2.36,4,1.14.21-.24.42-.51.64-.79C307,1.3,304.63,1.27,302.23,1.24Z"/><path class="cls-3" d="M251,1h0l2.28-1H250l1,1Z"/><path class="cls-3" d="M255.07,6.12h0c.24-1.11,1.17-1.56,2-2.09l.31.26a1.59,1.59,0,0,0,.15-.21A24,24,0,0,1,259.67,0h-4.36c-1.85,4.6-4.61,8.43-7,12.36h2.89l3.84-6.24Z"/><path class="cls-2" d="M257.39,4.29,257.08,4c-.84.53-1.77,1-2,2.09h0c2.38,1.76,4.05,4.29,6.25,6.24h3.9c-.09-.11-.16-.22-.23-.32C262.47,9.44,260.24,6.56,257.39,4.29Z"/><path class="cls-2" d="M277.46,1.12c1,.15,1.33-.45,1.6-1.12h-1.94C277.2.57,277.29,1.09,277.46,1.12Z"/><path class="cls-5" d="M253.25,0,251,1h0c-1.29,1.17-2.75,3.49-3.85,3.33-5.36-.76-9.49,1.26-13.3,4.56a9.94,9.94,0,0,1,1.08.49,4.4,4.4,0,0,1,2.57,2.95h10.87c2.36-3.93,5.12-7.76,7-12.36Z"/><path class="cls-5" d="M227.49,10.89a6.11,6.11,0,0,1-1.69,1.47h4c.11-.11.22-.22.34-.32C229.47,11.05,229,9,227.49,10.89Z"/><path class="cls-5" d="M356,7.2A64.26,64.26,0,0,0,366.73,0h-2.86l-8,5.93C356,6.36,356,6.78,356,7.2Z"/><path class="cls-5" d="M378.4,10.28c.59-2.95,1-5.71-.4-8.28l-1.92-2h-1.89C376.38,3,378.63,6,378.4,10.28Z"/><path class="cls-2" d="M591.08,10.17C590,9.9,589.55,9,589.15,8.08h0a20.38,20.38,0,0,0-9.25,4.28h9.35c.54-.59,1.06-1.21,1.56-1.84Z"/><path class="cls-4" d="M303,10.11c-.35-1.32-.69-2.64-1-4-1.18,2.06-1,4.14-.6,6.22h2.29c-.19-.75-.4-1.51-.65-2.25Z"/></g></svg>