<svg viewBox="0 0 796.34 209.46" xmlns="http://www.w3.org/2000/svg"><g stroke="#e6f14a" stroke-miterlimit="10" stroke-width="2"><path d="m130.33 130.2h-94.39a31 31 0 0 0 10.69 17.63 29 29 0 0 0 19.23 7.17h5.08v32.8h-5.08q-26.67 0-45.48-18.3t-18.82-44.24v-16.63q0-25.9 18.82-44.23t45.48-18.31q26.61 0 45.56 18.31t18.91 44.23zm-92.55-33.06h55.94a30.86 30.86 0 0 0 -11.19-13.14 30.06 30.06 0 0 0 -33.35 0 32.06 32.06 0 0 0 -11.4 13.14z"/><path d="m149 9.67h34v123.71h59.41v33.05h-93.41z"/><path d="m282.87 173-30.49-13.05 57.76-128.3 42.31 94 42.32-94 57.77 128.26-30.54 13.09-27.23-60.4-42.32 94-42.31-94z"/><path d="m575 63.71-23.59 24.15c-3.81-3.58-7.07-5.88-9.78-6.94a32.83 32.83 0 0 0 -12.41-2 29.7 29.7 0 0 0 -21.37 8.92q-9.14 8.9-9.15 20.77 0 12.09 9.15 20.89a30 30 0 0 0 21.37 8.81 32.83 32.83 0 0 0 12.41-2q4.07-1.57 9.78-6.74l23.59 24.19q-18.74 17.61-45.78 17.61-26.66 0-45.46-18.4t-18.82-44.34q0-25.9 18.82-44.23t45.46-18.31c18.03 0 33.07 6 45.78 17.62z"/><path d="m611.79 1.56a20 20 0 0 1 14.35 5.74 18.71 18.71 0 0 1 6 14.05 18.83 18.83 0 0 1 -6 13.95 20.67 20.67 0 0 1 -28.78 0 19 19 0 0 1 -5.9-13.95 18.83 18.83 0 0 1 5.9-14 20 20 0 0 1 14.43-5.79zm-17.07 49.44h34v115.43h-34z"/><path d="m665.5 41.13 21.58 20.8q17.87-15.85 42.92-15.84 26.64 0 45.58 18.31t18.89 44.23q0 25.92-18.89 44.34t-45.58 18.4a62.33 62.33 0 0 1 -30.51-7.71v35.82h-34v-112.21l-23.58-23.17zm95 67.5c0-7.91-3-14.84-9-20.77a30.29 30.29 0 0 0 -42.93 0q-9 8.9-9 20.77a28.18 28.18 0 0 0 9 20.89 30.55 30.55 0 0 0 42.93 0 28.1 28.1 0 0 0 8.98-20.89z"/></g></svg>